<svg xmlns="http://www.w3.org/2000/svg" viewBox="85 -18 380 292" width="100%" height="100%">
  <defs>
    <path id="dPathThick-news-dark" d="
      M 260,0 L 260,180
      M 260,110 L 190,110
      A 70,70 0 0,0 120,180
      A 70,70 0 0,0 190,250
      A 70,70 0 0,0 260,180
    " />
    <path id="dPathThin-news-dark" d="
      M 260,40 L 260,180
      M 260,110 L 190,110
      A 70,70 0 0,0 120,180
      A 70,70 0 0,0 190,250
      A 70,70 0 0,0 260,180
    " />
    <clipPath id="dClip-news-dark">
      <path d="M 300,300 L 0,300 L 0,50 L 242,50 C 242,22.5 258,0 278,0 L 300,0 Z" />
    </clipPath>
    <path id="zPath-news-dark" d="
      M 260,110 L 400,110 L 300,250 L 430,250
    " />
    <clipPath id="zClip-news-dark">
      <path d="M 240,0
      L 420,0
      L 420,150
      L 600,150
      L 600,300
      L 280,300
      L 280,200
      L 240,200
      Z" />
    </clipPath>

    <style>
      .thick-news-dark {
        fill: none;
        stroke: #006FA0;
        stroke-width: 36;
        stroke-linecap: round;
        stroke-linejoin: miter;
      }
      .thin-news-dark {
        fill: none;
        stroke: #FFFDF5;
        stroke-width: 4;
        stroke-linecap: round;
        stroke-linejoin: miter;
      }
      .node-news-dark {
        fill: #FFFDF5;
      }
    </style>
  </defs>

  <use href="#dPathThick-news-dark" class="thick-news-dark" clip-path="url(#dClip-news-dark)" />
  <use href="#zPath-news-dark" class="thick-news-dark" clip-path="url(#zClip-news-dark)" />

  <use href="#dPathThin-news-dark" class="thin-news-dark" />
  <use href="#zPath-news-dark" class="thin-news-dark" clip-path="url(#zClip-news-dark)" />

  <circle cx="260" cy="40" r="7" class="node-news-dark" />
  <circle cx="120" cy="180" r="7" class="node-news-dark" />
  <circle cx="400" cy="110" r="7" class="node-news-dark" />
  <circle cx="350" cy="180" r="7" class="node-news-dark" />
  <circle cx="430" cy="250" r="7" class="node-news-dark" />
</svg>
